<svg xmlns="http://www.w3.org/2000/svg" width="48" height="48" viewBox="0 0 48 48"><defs><style>.a{fill:#5865f2;}.b{fill:#fff;}</style></defs><g transform="translate(-484 -272)"><circle class="a" cx="24" cy="24" r="24" transform="translate(484 272)"/><path class="b" d="M78.286,65.994a.079.079,0,0,0-.04-.037A25.576,25.576,0,0,0,71.935,64a.1.1,0,0,0-.1.048,17.792,17.792,0,0,0-.786,1.613,23.613,23.613,0,0,0-7.088,0,16.32,16.32,0,0,0-.8-1.613.1.1,0,0,0-.1-.048,25.5,25.5,0,0,0-6.311,1.957.09.09,0,0,0-.042.036,26.147,26.147,0,0,0-4.58,17.639.106.106,0,0,0,.04.072,25.713,25.713,0,0,0,7.742,3.912.1.1,0,0,0,.109-.036A18.359,18.359,0,0,0,61.6,85a.1.1,0,0,0-.054-.136,16.934,16.934,0,0,1-2.418-1.152.1.1,0,0,1-.01-.165q.244-.183.48-.376a.1.1,0,0,1,.1-.014,18.341,18.341,0,0,0,15.581,0,.1.1,0,0,1,.1.012q.236.195.481.378a.1.1,0,0,1-.009.165,15.893,15.893,0,0,1-2.42,1.151.1.1,0,0,0-.053.138,20.619,20.619,0,0,0,1.583,2.574.1.1,0,0,0,.109.037A25.627,25.627,0,0,0,82.829,83.7a.1.1,0,0,0,.04-.071,25.974,25.974,0,0,0-4.584-17.639ZM62.36,80.111a3.144,3.144,0,0,1,0-6.247,3.144,3.144,0,0,1,0,6.247Zm10.3,0a3.144,3.144,0,0,1,0-6.247,3.144,3.144,0,0,1,0,6.247Z" transform="translate(440.499 220.191)"/></g></svg>