<svg xmlns="http://www.w3.org/2000/svg" width="48" height="48" viewBox="0 0 48 48"><defs><style>.a{fill:#1d9bf0;}.b{fill:#fff;}</style></defs><g transform="translate(-412 -272)"><circle class="a" cx="24" cy="24" r="24" transform="translate(412 272)"/><path class="b" d="M26.862,76.424c0-.28-.005-.558-.018-.833A12.6,12.6,0,0,0,29.9,72.3a11.77,11.77,0,0,1-3.522.964,6.293,6.293,0,0,0,2.7-3.522,11.786,11.786,0,0,1-3.893,1.5,6.1,6.1,0,0,0-4.476-2.112,6.2,6.2,0,0,0-6.132,6.391A6.827,6.827,0,0,0,14.738,77,17.268,17.268,0,0,1,2.1,70.02a6.879,6.879,0,0,0,1.9,8.761,5.865,5.865,0,0,1-2.778-.851v.083a6.513,6.513,0,0,0,4.92,6.454,5.793,5.793,0,0,1-1.615.22,5.59,5.59,0,0,1-1.153-.126A6.234,6.234,0,0,0,9.1,89.126a11.792,11.792,0,0,1-9.078,2.68,16.542,16.542,0,0,0,9.4,2.947c11.276,0,17.443-9.812,17.443-18.328Z" transform="translate(422.039 215.058)"/></g></svg>