<svg xmlns="http://www.w3.org/2000/svg" width="24" height="24" viewBox="0 0 24 24"><defs><style>.a{fill:#f25252;}.b{fill:none;}</style></defs><g transform="translate(-1463 -586)"><path class="a" d="M-7962.007-2410.57a5.746,5.746,0,0,1-4.389-1.678l-5.431-5.431a5.758,5.758,0,0,1,0-8.147,5.761,5.761,0,0,1,8.147,0l1.673,1.673,1.673-1.673a5.758,5.758,0,0,1,8.147,0,5.761,5.761,0,0,1,0,8.147l-5.432,5.431a5.742,5.742,0,0,1-4.073,1.687C-7961.8-2410.561-7961.9-2410.564-7962.007-2410.57Z" transform="translate(9437.016 3017.015)"/><rect class="b" width="24" height="24" transform="translate(1463 586)"/></g></svg>