<svg xmlns="http://www.w3.org/2000/svg" viewBox="0 0 303 135">
  <defs>
    <style>
      .cls-1{fill:#41acef;}
      .cls-2{fill:#6bf2a5;}
      .cls-3{fill:#2cdd7c;}
      .cls-4{fill:#e2a93e;}
      .cls-5,
      .cls-6{isolation:isolate;}
      .cls-6{font-size:19px;fill:#454545;font-family:Poppins-Bold, Poppins;font-weight:700;}
    </style>
  </defs>
  <g id="图层_2" data-name="图层 2">
    <g id="gameland">
      <g id="g">
        <path id="circle" class="cls-1" d="M25.52,93.79a25.65,25.65,0,1,1,7.17-50.27,4.13,4.13,0,0,1-2.3,7.93A17.39,17.39,0,1,0,41.25,75.57,4.13,4.13,0,1,1,48.76,79l0,.09A25.8,25.8,0,0,1,25.52,93.79Z"/>
      </g>
      <path id="short_l" data-name="short l" class="cls-2" d="M31.21,76.14h0a4.45,4.45,0,0,1-6.28.28l-9.31-8.54a4.45,4.45,0,0,1-.28-6.27h0a4.45,4.45,0,0,1,6.28-.28l9.31,8.54A4.44,4.44,0,0,1,31.21,76.14Z"/>
      <path id="long_l" data-name="long l" class="cls-3" d="M24.91,76.31h0a4.45,4.45,0,0,1,0-6.28L39,56a4.45,4.45,0,0,1,6.28,0h0a4.45,4.45,0,0,1,0,6.28L31.18,76.31A4.44,4.44,0,0,1,24.91,76.31Z"/>
      <g id="whole">
        <g id="fonts">
          <path id="g-2" class="cls-1" d="M75.22,84.18a12.41,12.41,0,0,1-3.16-2.7A15.3,15.3,0,0,1,70,78.27,15.6,15.6,0,0,1,68.82,75a21.93,21.93,0,0,1-.53-3c-.09-.91-.13-1.69-.13-2.32a10.7,10.7,0,0,1,0-1.27,18.08,18.08,0,0,1,1.85-8.11A12.34,12.34,0,0,1,75.26,55,14.9,14.9,0,0,1,79,53.63a20.09,20.09,0,0,1,3.79-.51,22.58,22.58,0,0,1,3.58.15c1.15.15,2.18.32,3.06.51s1.64.39,2.25.58l1.17.37-3,5.89A15.16,15.16,0,0,0,88,60a20.63,20.63,0,0,0-2.8-.44,17.37,17.37,0,0,0-3.06,0,7.17,7.17,0,0,0-2.8.8q-3.41,1.86-3.56,8.22a21.68,21.68,0,0,0,0,2.28,13,13,0,0,0,.5,3,13.66,13.66,0,0,0,1.2,2.94,6.11,6.11,0,0,0,2.15,2.25q2.34,1.47,6.69.67V72.6H81.65V66.23H93.83V87.05H86.3v-.89l-1.43.16a13.15,13.15,0,0,1-1.39.06A15.2,15.2,0,0,1,75.22,84.18Z"/>
          <path id="a" class="cls-1" d="M114.8,69.59v-1.2a3.92,3.92,0,0,0-1.28-1.82,7,7,0,0,0-1-.53,6.07,6.07,0,0,0-2-.31,13.27,13.27,0,0,0-2.18.18,14.18,14.18,0,0,0-1.93.44c-.58.18-1,.33-1.28.45l-3.35-5.7c.17-.09.7-.29,1.57-.6a18.94,18.94,0,0,1,3.24-.8,25,25,0,0,1,4.23-.33A13.18,13.18,0,0,1,117.25,61a9.48,9.48,0,0,1,1.83,1.3,12.91,12.91,0,0,1,1.7,1.92,11.37,11.37,0,0,1,1.39,2.68l.15.44V86h-7.53V85a18.57,18.57,0,0,1-6.74,1.46,10.75,10.75,0,0,1-4.23-.8,7.45,7.45,0,0,1-2.75-1.81,9.15,9.15,0,0,1-1.52-2.14,8,8,0,0,1-.65-1.86,6.59,6.59,0,0,1-.16-1,8.43,8.43,0,0,1,.5-4.07A7.79,7.79,0,0,1,101.12,72a8,8,0,0,1,2.59-1.62,9.34,9.34,0,0,1,2.67-.61Zm-7.63,10.34a2.55,2.55,0,0,0,.55.11,4.31,4.31,0,0,0,1.34-.09,16.68,16.68,0,0,0,2.3-.64,26,26,0,0,0,3.45-1.55V76l-7.79.13a.79.79,0,0,0-.5.39,2.61,2.61,0,0,0-.27.67,2.07,2.07,0,0,0,0,.7c0,.24,0,.41,0,.54s.12.36.24.75A1.17,1.17,0,0,0,107.17,79.93Z"/>
          <path id="m" class="cls-1" d="M136.14,85.9h-7.53V60.12h7.53v1.82a19.93,19.93,0,0,1,2.92-.86,16.09,16.09,0,0,1,3.09-.36,13.63,13.63,0,0,1,3.11.32,10.34,10.34,0,0,1,3,1.17c.21.11.41.24.6.35a5.12,5.12,0,0,1,.55.4,21.11,21.11,0,0,1,3.34-1.37,17.82,17.82,0,0,1,3.69-.78,15.18,15.18,0,0,1,3.81.09A11.25,11.25,0,0,1,164,62.2a9.31,9.31,0,0,1,3.43,3.28,8.4,8.4,0,0,1,1.23,4.42v16h-7.53v-16a3,3,0,0,0-.34-1.4,2.47,2.47,0,0,0-1-1,3.75,3.75,0,0,0-1.63-.44,6.09,6.09,0,0,0-1.8.18,12.14,12.14,0,0,0-1.85.61,18.39,18.39,0,0,0-1.73.84,1.6,1.6,0,0,1,.11.57V85.89H145.4v-16a3.06,3.06,0,0,0-.33-1.39,2.59,2.59,0,0,0-1-1,3.66,3.66,0,0,0-1.91-.44,8.74,8.74,0,0,0-2.15.38,13.83,13.83,0,0,0-2.09.84,20.54,20.54,0,0,0-1.8,1V85.9Z"/>
          <path id="e" class="cls-1" d="M180.52,76a5.3,5.3,0,0,0,5,3.71,26,26,0,0,0,9.78-1.5l2.56,6a37,37,0,0,1-11,2,16.31,16.31,0,0,1-8.83-2.3,10.25,10.25,0,0,1-3.26-3.16,14.54,14.54,0,0,1-1.63-3.45,12.37,12.37,0,0,1-.55-3c0-.86-.05-1.43-.05-1.7q0-7,4.71-10.34a10.84,10.84,0,0,1,3-1.57,16.75,16.75,0,0,1,2.9-.68,15.29,15.29,0,0,1,2.35-.15c.68,0,1.14,0,1.39.06a11.84,11.84,0,0,1,5.67,1.88,11,11,0,0,1,4.76,7.64,16.36,16.36,0,0,1,.13,3.7L197.17,76H180.52Zm9.25-6.37a4.55,4.55,0,0,0-.5-1.28,4.86,4.86,0,0,0-.86-1.11,4.25,4.25,0,0,0-1.28-.8,4.77,4.77,0,0,0-1.8-.31,8.5,8.5,0,0,0-1.51.16A4,4,0,0,0,182,67a3.68,3.68,0,0,0-1,1.15,8,8,0,0,0-.62,1.41h9.35Z"/>
          <path id="l" class="cls-1" d="M209.59,49.61V78.79a2.41,2.41,0,0,0,.21.5.72.72,0,0,0,.37.38,2.33,2.33,0,0,0,.91,0,8.14,8.14,0,0,0,2.12-.53l3,5.79a16.32,16.32,0,0,1-5.6,1.15,8.89,8.89,0,0,1-4.29-1,7,7,0,0,1-2.3-1.66,9,9,0,0,1-1.28-1.83A5.79,5.79,0,0,1,202.2,80a5.6,5.6,0,0,1-.13-1V49.6h7.52Z"/>
          <path id="a-2" class="cls-1" d="M235,69.59v-1.2a3.85,3.85,0,0,0-1.28-1.82,6.89,6.89,0,0,0-1-.53,6.13,6.13,0,0,0-2-.31,13.15,13.15,0,0,0-2.17.18,14.18,14.18,0,0,0-1.93.44c-.58.18-1,.33-1.28.45L222,61.1c.17-.09.7-.29,1.57-.6a18.94,18.94,0,0,1,3.24-.8,25,25,0,0,1,4.23-.33A13.18,13.18,0,0,1,237.46,61a9.48,9.48,0,0,1,1.83,1.3,12.91,12.91,0,0,1,1.7,1.92,11.37,11.37,0,0,1,1.39,2.68l.15.44V86H235V85a18.57,18.57,0,0,1-6.74,1.46,10.75,10.75,0,0,1-4.23-.8,7.45,7.45,0,0,1-2.75-1.81,9.15,9.15,0,0,1-1.52-2.14,8,8,0,0,1-.65-1.86,6.59,6.59,0,0,1-.16-1,8.43,8.43,0,0,1,.5-4.07A7.79,7.79,0,0,1,221.33,72a8,8,0,0,1,2.59-1.62,9.34,9.34,0,0,1,2.67-.61Zm-7.63,10.34a2.55,2.55,0,0,0,.55.11,5,5,0,0,0,1.33-.09,16.68,16.68,0,0,0,2.3-.64A25.54,25.54,0,0,0,235,77.76V76l-7.8.13a.85.85,0,0,0-.5.39,2.28,2.28,0,0,0-.26.67,2.36,2.36,0,0,0,0,.7c0,.24,0,.41,0,.54s.11.36.24.75a1.17,1.17,0,0,0,.7.8Z"/>
          <path id="n" class="cls-1" d="M268.15,62.21a9.1,9.1,0,0,1,3.42,3.27,8.4,8.4,0,0,1,1.23,4.42v16h-7.53v-16a3,3,0,0,0-.34-1.39,2.43,2.43,0,0,0-1-1,3.56,3.56,0,0,0-1.91-.44,8.3,8.3,0,0,0-2.15.38,13.83,13.83,0,0,0-2.09.84,20.54,20.54,0,0,0-1.8,1V85.9h-7.53V60.17H256V62a21.42,21.42,0,0,1,2.93-.87,16,16,0,0,1,3.08-.35,14.09,14.09,0,0,1,3.11.31A10.24,10.24,0,0,1,268.15,62.21Z"/>
          <path id="d" class="cls-1" d="M288.7,86.26A11.86,11.86,0,0,1,278,78.92a12.05,12.05,0,0,1-.89-4.55V70.52a12.17,12.17,0,0,1,1.28-5.5,10.08,10.08,0,0,1,1.7-2.39,8.74,8.74,0,0,1,2-1.52,10.21,10.21,0,0,1,4.81-1.4,14.61,14.61,0,0,1,2.88.16,19.23,19.23,0,0,1,2.8.64,21.91,21.91,0,0,1,2.56,1V49.83h7.48V86h-7.48V84.75a14.75,14.75,0,0,1-6.22,1.5h-.16Zm-4.08-11.9a5.68,5.68,0,0,0,1.68,4.25,3.77,3.77,0,0,0,1.56,1.1,4.43,4.43,0,0,0,.94.17,5,5,0,0,0,.95-.1,6.13,6.13,0,0,0,1.33-.45,12.07,12.07,0,0,0,1.76-1A20.78,20.78,0,0,0,295,76.7V68.88c-.66-.41-1.39-.81-2.17-1.2a25,25,0,0,0-2.33-1,12.15,12.15,0,0,0-2.2-.6,3.62,3.62,0,0,0-1.73,0,1.44,1.44,0,0,0-.78.55,5.09,5.09,0,0,0-.55.92,7.83,7.83,0,0,0-.4,1.05,7.72,7.72,0,0,0-.2.83,1.88,1.88,0,0,0-.05.47v4.41Z"/>
        </g>
      </g>
    </g>
    <g id="tag">
      <path id="square" class="cls-4" d="M227.8,19h71.5c2,0,3.7,1.34,3.7,3V40c0,1.66-1.66,3-3.7,3H227.8c-2,0-3.7-1.34-3.7-3V22C224.1,20.34,225.76,19,227.8,19Z"/>
      <path id="triangle" class="cls-4" d="M287.45,49.1,288,42h10Z"/>
    </g>
    <g id="Testnet" class="cls-5">
      <text class="cls-6" transform="translate(228.9 36)">Solana</text>
    </g>
  </g>
</svg>