<svg width="24" height="24" fill="none" xmlns="http://www.w3.org/2000/svg"><circle cx="12" cy="12" r="12" fill="#F0B90A"/><g clip-path="url(#a)"><path fill-rule="evenodd" clip-rule="evenodd" d="M12.003 4.042 7.93 6.482l1.497.9 2.576-1.537 2.575 1.538 1.498-.901-4.073-2.44zm2.575 4.614 1.498.902v1.802L13.5 12.898v3.076l-1.497.9-1.498-.9v-3.076L7.93 11.36V9.558l1.497-.902 2.576 1.538 2.575-1.538zm1.498 3.977v1.803l-1.498.9v-1.801l1.498-.902zm-1.513 3.978 2.576-1.538v-3.076l1.497-.901v4.878l-4.073 2.439V16.61zm2.576-7.69L15.64 8.02l1.498-.902 1.497.902v1.802l-1.497.9V8.922zm-6.634 10.144v-1.802l1.498.901 1.497-.9v1.801l-1.497.901-1.498-.9zm-1.078-3.728-1.497-.901v-1.803l1.497.902v1.802zm2.576-6.416-1.498-.901 1.498-.902 1.497.902-1.497.9zM8.364 8.02l-1.497.9v1.803l-1.498-.901V8.02l1.498-.902 1.497.902zM5.37 11.096l1.498.9v3.077l2.575 1.538v1.802l-4.073-2.44v-4.877z" fill="#000"/></g><defs><clipPath id="a"><path fill="#fff" transform="translate(5.36 4.031)" d="M0 0h13.281v15.938H0z"/></clipPath></defs></svg>