<svg width="20" height="20" viewBox="0 0 20 20" fill="none" xmlns="http://www.w3.org/2000/svg">
<path d="M10.0022 15.1685L6.3574 11.5247L3.94189 13.9395L10.0022 19.9984L16.0627 13.9395L13.6471 11.5247L10.0022 15.1685Z" fill="#F0B90A"/>
<path d="M17.5851 7.58423L15.2696 9.89922L17.6844 12.3136L20 9.99855L17.5851 7.58423Z" fill="#F0B90A"/>
<path d="M2.4149 7.58423L0 9.99855L2.31555 12.3136L4.73044 9.89922L2.4149 7.58423Z" fill="#F0B90A"/>
<path d="M9.99952 7.8772L7.9782 9.89806L9.99952 11.9188L12.0208 9.89806L9.99952 7.8772Z" fill="#F0B90A"/>
<path d="M13.6415 8.27668L15.9598 5.95899L9.99673 0L4.03629 5.95899L6.35182 8.27668L9.99673 4.63267L13.6415 8.27668Z" fill="#F0B90A"/>
</svg>
