<svg xmlns="http://www.w3.org/2000/svg" width="48" height="48" viewBox="0 0 48 48"><defs><style>.a{fill:#35caa9;}.b{fill:#fff;}</style></defs><g transform="translate(-556 -272)"><circle class="a" cx="24" cy="24" r="24" transform="translate(556 272)"/><g transform="translate(565.729 281.13)"><g transform="translate(0 0)"><path class="b" d="M14.87,29.74A14.87,14.87,0,1,1,19.026.589a2.395,2.395,0,0,1-1.337,4.6,10.083,10.083,0,1,0,6.3,13.985,2.394,2.394,0,0,1,4.329,2.047A14.942,14.942,0,0,1,14.87,29.74Z" transform="translate(0 0)"/><rect class="b" width="5.151" height="12.476" rx="2.575" transform="matrix(0.676, -0.737, 0.737, 0.676, 7.231, 12.978)"/><rect class="b" width="5.151" height="16.688" rx="2.575" transform="translate(24.495 5.985) rotate(45)"/></g></g></g></svg>