<svg xmlns="http://www.w3.org/2000/svg" xmlns:xlink="http://www.w3.org/1999/xlink" viewBox="0 0 56 56"><defs><style>.cls-1{fill:none;}.cls-2{fill:url(#未命名的渐变_59);}.cls-3{fill:#fff;}.cls-4{fill:#6bf2a5;}.cls-5{fill:#2cdd7c;}</style><linearGradient id="未命名的渐变_59" x1="15.42" y1="49.78" x2="40.58" y2="6.22" gradientUnits="userSpaceOnUse"><stop offset="0" stop-color="#2bd3d9"/><stop offset="0.04" stop-color="#31c9df"/><stop offset="0.12" stop-color="#3db4eb"/><stop offset="0.18" stop-color="#41acef"/><stop offset="0.4" stop-color="#40aeec"/><stop offset="0.59" stop-color="#3eb6e1"/><stop offset="0.78" stop-color="#3ac3cf"/><stop offset="0.8" stop-color="#39c5cc"/><stop offset="0.85" stop-color="#39c6c9"/><stop offset="0.89" stop-color="#37c9bf"/><stop offset="0.93" stop-color="#34ceaf"/><stop offset="0.96" stop-color="#31d598"/><stop offset="0.99" stop-color="#2cdd7c"/></linearGradient></defs><g id="图层_2" data-name="图层 2"><g id="图层_1-2" data-name="图层 1"><rect class="cls-1" width="56" height="56"/><circle class="cls-2" cx="28" cy="28" r="25.15"/><path class="cls-3" d="M28,7.75A20.25,20.25,0,1,1,7.75,28,20.27,20.27,0,0,1,28,7.75m0-1A21.25,21.25,0,1,0,49.25,28,21.24,21.24,0,0,0,28,6.75Z"/><path class="cls-4" d="M32.16,23.53A6.09,6.09,0,0,1,29,22.66a1.93,1.93,0,0,0-2.94,1.56v.11a6.07,6.07,0,0,0,4.55,5.88A7.51,7.51,0,1,1,26,16.82h.14a6.06,6.06,0,0,1,.51-1.91,2,2,0,0,0-2-2.78,11.28,11.28,0,0,0-3,.78,12.5,12.5,0,0,0-7.94,11.45A12.26,12.26,0,0,0,38,26.67a11.43,11.43,0,0,0,.23-2.3,1.93,1.93,0,0,0-2.89-1.74A6.08,6.08,0,0,1,32.16,23.53Z"/><path class="cls-5" d="M32.82,21.22h2.77a0,0,0,0,1,0,0V42.46a1.95,1.95,0,0,1-1.95,1.95h-.83a1.95,1.95,0,0,1-1.95-1.95V23.17a1.95,1.95,0,0,1,1.95-1.95Z" transform="translate(-13.47 33.11) rotate(-45)"/></g></g></svg>