<svg xmlns="http://www.w3.org/2000/svg" width="24" height="24" viewBox="0 0 24 24"><defs><style>.a,.b,.c{fill:none;}.b{stroke:#41acef;stroke-linecap:round;stroke-width:2px;fill-rule:evenodd;}.b,.c{stroke-linejoin:round;}.d,.e{stroke:none;}.e{fill:#41acef;}</style></defs><g transform="translate(-1084 -443)"><rect class="a" width="24" height="24" transform="translate(1084 443)"/><g transform="translate(1080.229 437.929)"><path class="b" d="M5,9.134A1.134,1.134,0,0,1,6.134,8H25.409a1.134,1.134,0,0,1,1.134,1.134V25.008a1.134,1.134,0,0,1-1.134,1.134H6.134A1.134,1.134,0,0,1,5,25.008Z"/><path class="b" d="M14.723,18.446A1.723,1.723,0,1,0,13,16.723,1.723,1.723,0,0,0,14.723,18.446Z" transform="translate(-1.337 -3.904)"/><g class="c" transform="translate(0 -4.63)"><path class="d" d="M10.669,22.7,13.5,24.968,16.905,21l9.638,7.37v2.268a1.134,1.134,0,0,1-1.134,1.134H6.134A1.134,1.134,0,0,1,5,30.638V28.37Z"/><path class="e" d="M 17.19289779663086 23.73767280578613 L 15.02231407165527 26.27002143859863 C 14.32063484191895 27.08865547180176 13.09634399414062 27.20372009277344 12.25441360473633 26.53018188476562 L 10.81762886047363 25.3807544708252 L 6.999994277954102 29.19838333129883 L 6.999994277954102 29.77148246765137 L 24.54296493530273 29.77148246765137 L 24.54296493530273 29.35831069946289 L 17.19289779663086 23.73767280578613 M 16.90532302856445 21.00000190734863 L 26.54296493530273 28.36996269226074 L 26.54296493530273 30.63764190673828 C 26.54296493530273 31.26386260986328 26.03534507751465 31.77148246765137 25.40912437438965 31.77148246765137 L 6.133844375610352 31.77148246765137 C 5.507635116577148 31.77148246765137 4.999994277954102 31.26386260986328 4.999994277954102 30.63764190673828 L 4.999994277954102 28.36996269226074 L 10.66920471191406 22.70076179504395 L 13.50380516052246 24.96844291687012 L 16.90532302856445 21.00000190734863 Z"/></g></g></g></svg>