<svg xmlns="http://www.w3.org/2000/svg" width="40" height="40" viewBox="0 0 40 40"><defs><style>.a{fill:#35caa9;}.b{fill:#41acef;}.c{fill:none;}</style></defs><g transform="translate(-1390 -1149)"><g transform="translate(1388.041 1147.038)"><path class="a" d="M26.173,17.173V10.788A4.789,4.789,0,0,0,21.385,6L15,20.365V37.923H33.548A3.192,3.192,0,0,0,36.74,35.21l2.2-14.366a3.192,3.192,0,0,0-3.192-3.671Z" transform="translate(-1.019)"/><path class="b" d="M13.981,22H9.719A3.844,3.844,0,0,0,6,25.369V36.542a3.687,3.687,0,0,0,3.719,3.192h4.262Z" transform="translate(0 -1.812)"/></g><rect class="c" width="40" height="40" transform="translate(1390 1149)"/></g></svg>