<svg xmlns="http://www.w3.org/2000/svg" width="24" height="24" viewBox="0 0 24 24"><defs><style>.a,.b{fill:none;}.c,.d{stroke:none;}.d{fill:#707070;}</style></defs><g transform="translate(-1463 -586)"><g class="a" transform="translate(9437.016 3017.015)"><path class="c" d="M-7962.007-2410.57a5.746,5.746,0,0,1-4.389-1.678l-5.431-5.431a5.758,5.758,0,0,1,0-8.147,5.761,5.761,0,0,1,8.147,0l1.673,1.673,1.673-1.673a5.758,5.758,0,0,1,8.147,0,5.761,5.761,0,0,1,0,8.147l-5.432,5.431a5.742,5.742,0,0,1-4.073,1.687C-7961.8-2410.561-7961.9-2410.564-7962.007-2410.57Z"/><path class="d" d="M -7961.69140625 -2411.811279296875 C -7960.486328125 -2411.811279296875 -7959.353515625 -2412.2802734375 -7958.501953125 -2413.132080078125 L -7953.0703125 -2418.563720703125 C -7952.21875 -2419.415283203125 -7951.74951171875 -2420.548095703125 -7951.74951171875 -2421.753173828125 C -7951.74951171875 -2422.958251953125 -7952.21875 -2424.091064453125 -7953.07080078125 -2424.943115234375 C -7953.9228515625 -2425.795654296875 -7955.05517578125 -2426.26513671875 -7956.26025390625 -2426.26513671875 C -7957.46484375 -2426.26513671875 -7958.59765625 -2425.795654296875 -7959.44970703125 -2424.942626953125 L -7962.0068359375 -2422.3857421875 L -7964.56298828125 -2424.9423828125 C -7965.416015625 -2425.79443359375 -7966.54931640625 -2426.263671875 -7967.75390625 -2426.263671875 C -7968.95849609375 -2426.263671875 -7970.0908203125 -2425.794677734375 -7970.943359375 -2424.9423828125 C -7971.7958984375 -2424.090576171875 -7972.26513671875 -2422.9580078125 -7972.26513671875 -2421.753173828125 C -7972.26513671875 -2420.54833984375 -7971.7958984375 -2419.415771484375 -7970.94287109375 -2418.5634765625 L -7965.51171875 -2413.13232421875 C -7964.65966796875 -2412.280517578125 -7963.52734375 -2411.8115234375 -7962.322265625 -2411.8115234375 C -7962.240234375 -2411.8115234375 -7962.15673828125 -2411.813720703125 -7962.07470703125 -2411.818115234375 L -7962.005859375 -2411.822021484375 L -7961.93701171875 -2411.818115234375 C -7961.85595703125 -2411.8134765625 -7961.77294921875 -2411.811279296875 -7961.69140625 -2411.811279296875 M -7961.69140625 -2410.561279296875 C -7961.79638671875 -2410.561279296875 -7961.90185546875 -2410.564208984375 -7962.0068359375 -2410.570068359375 C -7963.5859375 -2410.48388671875 -7965.18994140625 -2411.043701171875 -7966.3955078125 -2412.248291015625 L -7971.82666015625 -2417.6796875 C -7974.078125 -2419.928955078125 -7974.078125 -2423.577392578125 -7971.82666015625 -2425.82666015625 C -7969.57763671875 -2428.076171875 -7965.9306640625 -2428.076171875 -7963.6796875 -2425.82666015625 L -7962.0068359375 -2424.153564453125 L -7960.33349609375 -2425.82666015625 C -7958.08447265625 -2428.07861328125 -7954.435546875 -2428.07763671875 -7952.1865234375 -2425.82666015625 C -7949.93701171875 -2423.577392578125 -7949.93701171875 -2419.928955078125 -7952.1865234375 -2417.6796875 L -7957.6181640625 -2412.248291015625 C -7958.74267578125 -2411.12353515625 -7960.21728515625 -2410.561279296875 -7961.69140625 -2410.561279296875 Z"/></g><rect class="b" width="24" height="24" transform="translate(1463 586)"/></g></svg>