<svg xmlns="http://www.w3.org/2000/svg" width="48" height="48" viewBox="0 0 48 48"><defs><style>.a{fill:#41acef;}.b{fill:#c8eaff;}</style></defs><g transform="translate(-556 -272)"><circle class="a" cx="24" cy="24" r="24" transform="translate(556 272)"/><path class="b" d="M24,0c13.255,0,10.414,6.566,6.849,9.313S24.656,8.937,20.816,11.2s-1.844,5.565-5.325,7.156-.423-3-6.041-1.263S.766,17.1,2.264,13.811A23.9,23.9,0,0,1,24,0Z" transform="translate(556 272)"/><path class="b" d="M582.422,291.573c-4.857.858-2.072,3.87-5.294,4.42s-4,3.026-1.83,4.322,7.9,3.124,10.912,0S587.279,290.715,582.422,291.573Z"/><path class="b" d="M48,24A24.11,24.11,0,0,1,34.663,45.507c-3.011,1.545-1.943-1.658-1.709-3.286s2-3.621,4.484-5.642c3.549-2.886,3.063-3.12,2.072-7.481C38.265,23.618,48,13.582,48,24Z" transform="translate(556 272)"/></g></svg>