<svg xmlns="http://www.w3.org/2000/svg" width="24" height="24" viewBox="0 0 24 24"><defs><style>.a{fill:none;}.b{fill:#707070;}</style></defs><g transform="translate(-1245 -597)"><rect class="a" width="24" height="24" transform="translate(1245 597)"/><path class="b" d="M52.229,42.667a.652.652,0,1,1,0,1.3,8.259,8.259,0,1,0,8.259,8.259.652.652,0,0,1,1.3,0,9.563,9.563,0,1,1-9.563-9.563ZM56.991,45.1l.047.042,1.844,1.844a.652.652,0,0,1,.043.876l-.043.047-1.844,1.844a.652.652,0,0,1-.965-.875l.042-.047.731-.731H55.272a2.825,2.825,0,0,0-2.824,2.724l0,.1v2.608a.652.652,0,0,1-1.3.063l0-.063V50.925A4.129,4.129,0,0,1,55.155,46.8l.117,0h1.574l-.731-.731a.652.652,0,0,1-.042-.875l.042-.047a.652.652,0,0,1,.876-.043Z" transform="translate(1204.771 556.771)"/></g></svg>