<svg xmlns="http://www.w3.org/2000/svg" width="24" height="24" viewBox="0 0 24 24"><defs><style>.a{fill:none;}.b{fill:#515151;}</style></defs><g transform="translate(-718 -624)"><rect class="a" width="24" height="24" transform="translate(718 624)"/><path class="b" d="M227.319,131.5a3.487,3.487,0,0,0-2.139-1.485v-.047a5.6,5.6,0,0,0,1.259-.8,3.342,3.342,0,0,0,.784-.879,4,4,0,0,0,.511-2.044,4.5,4.5,0,0,0-1.3-3.363A5.349,5.349,0,0,0,222.6,121.6h-7.369v17.326h7.952a4.628,4.628,0,0,0,3.411-1.367,4.734,4.734,0,0,0,1.4-3.553A4.859,4.859,0,0,0,227.319,131.5Zm-9.269-7.558H222.3a2.958,2.958,0,0,1,2.115.7,2.474,2.474,0,0,1,.689,1.771,2.353,2.353,0,0,1-.689,1.735,2.718,2.718,0,0,1-2.115.749H218.05Zm6.643,11.706a2.767,2.767,0,0,1-2.139.8h-4.5v-5.2h4.5a2.813,2.813,0,0,1,2.139.773,2.658,2.658,0,0,1,.678,1.83A2.626,2.626,0,0,1,224.693,135.646Z" transform="translate(508.768 505.4)"/></g></svg>