<svg xmlns="http://www.w3.org/2000/svg" width="340" height="74.795" viewBox="0 0 340 74.795">
  <defs>
    <style>
      .cls-1 {
        fill: #41acef;
      }

      .cls-2 {
        fill: #6bf2a5;
      }

      .cls-3 {
        fill: #2cdd7c;
      }

      .cls-4 {
        fill: #e2a93e;
      }

      .cls-5 {
        fill: #454545;
        font-size: 13px;
        font-family: Poppins-Bold, Poppins;
        font-weight: 600;
      }
    </style>
  </defs>
  <g id="logo_BSC" transform="translate(0.006 -18.995)">
    <g id="gameland">
      <g id="g">
        <path id="circle" class="cls-1" d="M25.67,93.79a25.65,25.65,0,1,1,7.17-50.27,4.13,4.13,0,0,1-2.3,7.93A17.39,17.39,0,1,0,41.41,75.57,4.13,4.13,0,1,1,48.92,79l-.05.09a25.77,25.77,0,0,1-23.2,14.7Z"/>
      </g>
      <path id="short_l" data-name="short l" class="cls-2" d="M31.36,76.14h0a4.44,4.44,0,0,1-6.27.28l-9.32-8.54a4.45,4.45,0,0,1-.27-6.27h0a4.44,4.44,0,0,1,6.27-.28l9.32,8.54a4.45,4.45,0,0,1,.27,6.27Z"/>
      <path id="long_l" data-name="long l" class="cls-3" d="M25.06,76.31h0a4.47,4.47,0,0,1,0-6.28L39.13,56a4.45,4.45,0,0,1,6.28,0h0a4.45,4.45,0,0,1,0,6.28L31.34,76.31a4.45,4.45,0,0,1-6.28,0Z"/>
      <g id="whole">
        <g id="fonts">
          <path id="g-2" class="cls-1" d="M75.38,84.18a12.62,12.62,0,0,1-3.17-2.7,15.71,15.71,0,0,1-2.07-3.21A16.171,16.171,0,0,1,69,75a23.551,23.551,0,0,1-.53-3c-.09-.91-.13-1.69-.13-2.32a10.7,10.7,0,0,1,0-1.27A18.09,18.09,0,0,1,70.2,60.3,12.28,12.28,0,0,1,75.42,55a14.84,14.84,0,0,1,3.76-1.41A20.2,20.2,0,0,1,83,53.12a22.659,22.659,0,0,1,3.59.15c1.14.15,2.17.32,3.06.51s1.64.39,2.24.58l1.18.37-3,5.89a14.708,14.708,0,0,0-2-.58,20.38,20.38,0,0,0-2.8-.44,17.369,17.369,0,0,0-3.06,0,7.22,7.22,0,0,0-2.8.8Q76,62.26,75.89,68.62a21.679,21.679,0,0,0,0,2.28,14.2,14.2,0,0,0,.5,3,13.2,13.2,0,0,0,1.21,2.94,6,6,0,0,0,2.14,2.25q2.35,1.47,6.69.67V72.6H81.81V66.23H94V87.05H86.46v-.89L85,86.32a12.85,12.85,0,0,1-1.38.06,15.18,15.18,0,0,1-8.24-2.2Z"/>
          <path id="a" class="cls-1" d="M115,69.59v-1.2a3.85,3.85,0,0,0-1.28-1.82,6.89,6.89,0,0,0-1-.53,6.09,6.09,0,0,0-2-.31,13.156,13.156,0,0,0-2.172.18,14.322,14.322,0,0,0-1.938.44c-.57.18-1,.33-1.28.45L102,61.1c.18-.09.7-.29,1.57-.6a19.17,19.17,0,0,1,3.24-.8,25,25,0,0,1,4.23-.33A13.22,13.22,0,0,1,117.41,61a9.79,9.79,0,0,1,1.83,1.3,12.909,12.909,0,0,1,1.7,1.92,11.72,11.72,0,0,1,1.38,2.68l.16.44V86H115V85a18.67,18.67,0,0,1-6.75,1.46,10.78,10.78,0,0,1-4.23-.8,7.53,7.53,0,0,1-2.75-1.81,8.83,8.83,0,0,1-1.51-2.14,7.63,7.63,0,0,1-.66-1.86,8.168,8.168,0,0,1-.16-1,8.56,8.56,0,0,1,.5-4.07A7.79,7.79,0,0,1,101.27,72a8,8,0,0,1,2.59-1.62,9.5,9.5,0,0,1,2.67-.61Zm-7.63,10.34a2.68,2.68,0,0,0,.55.11,4.31,4.31,0,0,0,1.34-.09,16.68,16.68,0,0,0,2.3-.64A25.419,25.419,0,0,0,115,77.76V76l-7.79.13a.85.85,0,0,0-.5.39,2.28,2.28,0,0,0-.26.67,2.36,2.36,0,0,0,0,.7c0,.24,0,.41,0,.54a5.474,5.474,0,0,0,.24.75,1.22,1.22,0,0,0,.63.75Z"/>
          <path id="m" class="cls-1" d="M136.29,85.9h-7.53V60.12h7.53v1.82a19.7,19.7,0,0,1,2.93-.86,15.9,15.9,0,0,1,3.08-.36,13.52,13.52,0,0,1,3.11.32,10.24,10.24,0,0,1,3,1.17c.21.11.41.24.6.35a4.29,4.29,0,0,1,.55.4,21.62,21.62,0,0,1,3.35-1.37,17.73,17.73,0,0,1,3.68-.78,15.18,15.18,0,0,1,3.81.09,11.17,11.17,0,0,1,3.74,1.3,9.31,9.31,0,0,1,3.43,3.28,8.31,8.31,0,0,1,1.23,4.42v16h-7.53v-16a3,3,0,0,0-.33-1.4,2.5,2.5,0,0,0-1-1,3.7,3.7,0,0,0-1.62-.44,6,6,0,0,0-1.8.18,11.9,11.9,0,0,0-1.86.61,18.219,18.219,0,0,0-1.72.84,1.86,1.86,0,0,1,.11.57V85.89h-7.53v-16a3.07,3.07,0,0,0-.34-1.39,2.52,2.52,0,0,0-1-1,3.61,3.61,0,0,0-1.91-.44,8.58,8.58,0,0,0-2.14.38,13,13,0,0,0-2.09.84,20.538,20.538,0,0,0-1.8,1V85.9Z"/>
          <path id="e" class="cls-1" d="M180.68,76a5.29,5.29,0,0,0,5,3.71,26,26,0,0,0,9.77-1.5l2.56,6a37,37,0,0,1-11,2,16.34,16.34,0,0,1-8.84-2.3,10.46,10.46,0,0,1-3.26-3.16,14.5,14.5,0,0,1-1.62-3.45,11.9,11.9,0,0,1-.55-3c0-.86-.05-1.43-.05-1.7q0-7,4.7-10.34a11,11,0,0,1,3-1.57,16.75,16.75,0,0,1,2.9-.68,15.46,15.46,0,0,1,2.35-.15,7.8,7.8,0,0,1,1.39.06,11.87,11.87,0,0,1,5.68,1.88,11,11,0,0,1,4.75,7.64,15.8,15.8,0,0,1,.13,3.7L197.32,76Zm9.25-6.37a5.239,5.239,0,0,0-.5-1.28,4.86,4.86,0,0,0-.86-1.11,4.38,4.38,0,0,0-1.28-.8,4.84,4.84,0,0,0-1.8-.31,8.621,8.621,0,0,0-1.52.16,4,4,0,0,0-1.78.77,3.65,3.65,0,0,0-1,1.15,8.911,8.911,0,0,0-.63,1.41h9.36Z"/>
          <path id="l" class="cls-1" d="M209.75,49.61V78.79a1.94,1.94,0,0,0,.2.5.8.8,0,0,0,.37.38,2.37,2.37,0,0,0,.92,0,8.07,8.07,0,0,0,2.11-.53l3,5.79a16.27,16.27,0,0,1-5.59,1.15,8.86,8.86,0,0,1-4.29-1,6.78,6.78,0,0,1-2.3-1.66,8.25,8.25,0,0,1-1.28-1.83,5.809,5.809,0,0,1-.58-1.62,6.71,6.71,0,0,1-.13-1V49.6h7.53Z"/>
          <path id="a-2" class="cls-1" d="M235.16,69.59v-1.2a3.92,3.92,0,0,0-1.28-1.82,7,7,0,0,0-1-.53,6.09,6.09,0,0,0-2-.31,13,13,0,0,0-2.16.18,14.323,14.323,0,0,0-1.94.44c-.57.18-1,.33-1.28.45l-3.34-5.7c.17-.09.7-.29,1.56-.6a19.171,19.171,0,0,1,3.24-.8,25.08,25.08,0,0,1,4.24-.33A13.21,13.21,0,0,1,237.62,61a9.79,9.79,0,0,1,1.83,1.3,12.911,12.911,0,0,1,1.7,1.92,11.339,11.339,0,0,1,1.38,2.68l.16.44V86h-7.53V85a18.66,18.66,0,0,1-6.74,1.46,10.83,10.83,0,0,1-4.24-.8,7.53,7.53,0,0,1-2.75-1.81,9.11,9.11,0,0,1-1.51-2.14,7.63,7.63,0,0,1-.66-1.86,8.169,8.169,0,0,1-.16-1,8.68,8.68,0,0,1,.5-4.07,7.78,7.78,0,0,1,4.47-4.38,9.5,9.5,0,0,1,2.67-.61Zm-7.64,10.34a2.55,2.55,0,0,0,.55.11,5,5,0,0,0,1.34-.09,16.681,16.681,0,0,0,2.3-.64,25.42,25.42,0,0,0,3.45-1.55V76l-7.79.13a.85.85,0,0,0-.5.39,2.279,2.279,0,0,0-.26.67,2.07,2.07,0,0,0-.05.7v.54a5.472,5.472,0,0,0,.24.75,1.22,1.22,0,0,0,.7.8Z"/>
          <path id="n" class="cls-1" d="M268.3,62.21a9.1,9.1,0,0,1,3.42,3.27A8.31,8.31,0,0,1,273,69.9v16h-7.53v-16a2.94,2.94,0,0,0-.33-1.39,2.46,2.46,0,0,0-1-1,3.52,3.52,0,0,0-1.91-.44,8.15,8.15,0,0,0-2.14.38,13,13,0,0,0-2.09.84,20.541,20.541,0,0,0-1.8,1V85.9h-7.53V60.17h7.53V62a21.282,21.282,0,0,1,2.92-.87,16.08,16.08,0,0,1,3.09-.35,14.15,14.15,0,0,1,3.11.31A10.07,10.07,0,0,1,268.3,62.21Z"/>
          <path id="d" class="cls-1" d="M288.85,86.26a11.58,11.58,0,0,1-8.16-3.49,11.77,11.77,0,0,1-3.44-8.4V70.52a11.921,11.921,0,0,1,1.28-5.5,9.8,9.8,0,0,1,1.7-2.39,8.74,8.74,0,0,1,2-1.52,10.17,10.17,0,0,1,4.8-1.4,14.571,14.571,0,0,1,2.88.16,18.94,18.94,0,0,1,2.8.64,21.259,21.259,0,0,1,2.56,1V49.83h7.48V86h-7.48V84.75a14.75,14.75,0,0,1-6.22,1.5h-.16Zm-4.07-11.9a5.67,5.67,0,0,0,1.67,4.25,3.87,3.87,0,0,0,1.57,1.1,4.209,4.209,0,0,0,.94.17,4.92,4.92,0,0,0,.94-.1,6.4,6.4,0,0,0,1.34-.45,11.469,11.469,0,0,0,1.75-1,19.8,19.8,0,0,0,2.2-1.66V68.88c-.66-.41-1.38-.81-2.17-1.2a25,25,0,0,0-2.33-1,11.929,11.929,0,0,0-2.2-.6,3.57,3.57,0,0,0-1.72,0,1.47,1.47,0,0,0-.79.55,5.739,5.739,0,0,0-.55.92,6.63,6.63,0,0,0-.39,1.05,5.933,5.933,0,0,0-.21.83,2.5,2.5,0,0,0-.05.47v4.41Z"/>
        </g>
      </g>
    </g>
  </g>
</svg>
