<svg xmlns="http://www.w3.org/2000/svg" xmlns:xlink="http://www.w3.org/1999/xlink" width="303" height="135" viewBox="0 0 303 135">
  <defs>
    <clipPath id="clip-path">
      <rect id="mask" width="303" height="135" transform="translate(1065 420)" fill="#fff" stroke="#707070" stroke-width="1"/>
    </clipPath>
  </defs>
  <g id="logo" transform="translate(-1065 -420)" clip-path="url(#clip-path)">
    <g id="main">
      <g id="gameland" transform="translate(362.375)">
        <g id="g" transform="translate(702.5 462.5)">
          <path id="circle" d="M81.795,83.17A25.645,25.645,0,1,1,88.961,32.9a4.13,4.13,0,0,1-2.3,7.931,17.389,17.389,0,1,0,10.866,24.12,4.13,4.13,0,1,1,7.466,3.532A25.773,25.773,0,0,1,81.795,83.17Z" transform="translate(-56.15 -31.88)" fill="#41acef"/>
        </g>
        <path id="short_l" data-name="short l" d="M152.244,145.513h0a4.455,4.455,0,0,1-6.276.273l-9.314-8.536a4.455,4.455,0,0,1-.273-6.276h0a4.455,4.455,0,0,1,6.276-.273l9.314,8.536A4.455,4.455,0,0,1,152.244,145.513Z" transform="translate(581.588 350.632)" fill="#6bf2a5"/>
        <path id="long_l" data-name="long l" d="M188.624,120.754h0a4.453,4.453,0,0,1,0-6.281L202.693,100.4a4.453,4.453,0,0,1,6.281,0h0a4.453,4.453,0,0,1,0,6.281L194.9,120.754A4.453,4.453,0,0,1,188.624,120.754Z" transform="translate(538.91 375.558)" fill="#2cdd7c"/>
        <g id="whole" transform="translate(770.783 469.6)">
          <g id="fonts" transform="translate(0 0)">
            <path id="g-2" data-name="g" d="M65.563,384.013a12.442,12.442,0,0,1-3.166-2.7,15.421,15.421,0,0,1-2.067-3.207,16.185,16.185,0,0,1-1.173-3.314,23.075,23.075,0,0,1-.525-3.027c-.09-.911-.131-1.69-.131-2.321a10.2,10.2,0,0,1,.049-1.263,18.132,18.132,0,0,1,1.854-8.113,12.31,12.31,0,0,1,5.2-5.192,14.994,14.994,0,0,1,3.765-1.411,19.89,19.89,0,0,1,3.79-.509,22.376,22.376,0,0,1,3.585.156c1.148.148,2.174.32,3.06.509s1.641.385,2.248.574,1,.32,1.173.377l-2.978,5.881a15.254,15.254,0,0,0-1.96-.574,19.4,19.4,0,0,0-2.8-.443,17.323,17.323,0,0,0-3.06,0,7.281,7.281,0,0,0-2.8.8q-3.4,1.858-3.552,8.219a21.938,21.938,0,0,0,.025,2.28,13.4,13.4,0,0,0,.5,2.961,13.186,13.186,0,0,0,1.206,2.937,6.081,6.081,0,0,0,2.141,2.256q2.35,1.464,6.693.664v-7.12H71.994v-6.365H84.175v20.819h-7.53V386c-.492.057-.968.107-1.435.156s-.935.066-1.386.066A15.229,15.229,0,0,1,65.563,384.013Z" transform="translate(-58.5 -349.438)" fill="#41acef"/>
            <path id="a" d="M111.831,370.8v-1.2a3.882,3.882,0,0,0-1.28-1.813,6.513,6.513,0,0,0-.968-.533,6.035,6.035,0,0,0-1.985-.312,12.891,12.891,0,0,0-2.174.18,13.817,13.817,0,0,0-1.936.443q-.861.271-1.28.443l-3.347-5.7c.172-.09.7-.287,1.567-.6a19.689,19.689,0,0,1,3.24-.8,25.058,25.058,0,0,1,4.233-.328,13.224,13.224,0,0,1,6.382,1.657,9.407,9.407,0,0,1,1.829,1.3,12.3,12.3,0,0,1,1.7,1.919,11.366,11.366,0,0,1,1.386,2.674l.156.443V387.2h-7.53v-1.017a18.585,18.585,0,0,1-6.743,1.46,10.958,10.958,0,0,1-4.233-.8,7.542,7.542,0,0,1-2.748-1.813,8.859,8.859,0,0,1-1.518-2.141,8.059,8.059,0,0,1-.656-1.854,7.68,7.68,0,0,1-.156-.993,8.473,8.473,0,0,1,.5-4.069,7.853,7.853,0,0,1,1.878-2.764,7.932,7.932,0,0,1,2.592-1.616,9.49,9.49,0,0,1,2.666-.615ZM104.2,381.146a2.665,2.665,0,0,0,.55.107,4.6,4.6,0,0,0,1.337-.09,16.546,16.546,0,0,0,2.3-.64,25.167,25.167,0,0,0,3.453-1.55V377.16l-7.793.131a.841.841,0,0,0-.5.394,2.34,2.34,0,0,0-.262.664,2.294,2.294,0,0,0-.049.705c.016.238.025.41.025.533.033.115.115.369.238.755A1.181,1.181,0,0,0,104.2,381.146Z" transform="translate(-65.189 -350.812)" fill="#41acef"/>
            <path id="m" d="M139.72,387.273h-7.53V361.5h7.53v1.813a21.524,21.524,0,0,1,2.928-.861,15.522,15.522,0,0,1,3.084-.353,13.7,13.7,0,0,1,3.109.312,10.563,10.563,0,0,1,3.01,1.173c.213.115.41.238.6.353a5.162,5.162,0,0,1,.55.394,22.67,22.67,0,0,1,3.347-1.37,17.7,17.7,0,0,1,3.683-.771,14.854,14.854,0,0,1,3.814.09,10.962,10.962,0,0,1,3.74,1.3,9.268,9.268,0,0,1,3.429,3.273,8.381,8.381,0,0,1,1.23,4.421v16h-7.53v-16a2.992,2.992,0,0,0-.336-1.394,2.452,2.452,0,0,0-.968-.993,3.83,3.83,0,0,0-1.624-.443,6.193,6.193,0,0,0-1.8.18,12.267,12.267,0,0,0-1.854.615,17.8,17.8,0,0,0-1.723.837,1.66,1.66,0,0,1,.107.574v16.619h-7.53v-16a2.992,2.992,0,0,0-.336-1.395,2.451,2.451,0,0,0-.968-.993,3.527,3.527,0,0,0-1.911-.443,8.514,8.514,0,0,0-2.141.377,14.261,14.261,0,0,0-2.092.837c-.681.336-1.28.673-1.8.993v16.627Z" transform="translate(-71.743 -350.976)" fill="#41acef"/>
            <path id="e" d="M193.73,377.255a5.3,5.3,0,0,0,4.971,3.716,26.084,26.084,0,0,0,9.778-1.5l2.559,5.972a37.064,37.064,0,0,1-10.975,1.944,16.247,16.247,0,0,1-8.834-2.3,10.308,10.308,0,0,1-3.265-3.158,14.718,14.718,0,0,1-1.624-3.445,12.228,12.228,0,0,1-.55-2.961q-.049-1.3-.049-1.7,0-6.989,4.708-10.344a10.81,10.81,0,0,1,3.035-1.567,16.3,16.3,0,0,1,2.9-.681,15.751,15.751,0,0,1,2.354-.156c.681.016,1.14.033,1.386.066a11.831,11.831,0,0,1,5.676,1.878,10.953,10.953,0,0,1,4.758,7.645,16.121,16.121,0,0,1,.131,3.691l-.312,2.92H193.73Zm9.253-6.365a5,5,0,0,0-.5-1.28,4.68,4.68,0,0,0-.861-1.107,4.341,4.341,0,0,0-1.28-.8,4.8,4.8,0,0,0-1.8-.312,9.449,9.449,0,0,0-1.518.156,4.174,4.174,0,0,0-1.78.771,3.777,3.777,0,0,0-.993,1.148,8.757,8.757,0,0,0-.623,1.411h9.359Z" transform="translate(-81.367 -350.9)" fill="#41acef"/>
            <path id="l" d="M229.272,348.678v29.177a2.194,2.194,0,0,0,.205.509.82.82,0,0,0,.369.377,2.36,2.36,0,0,0,.919.041,8.182,8.182,0,0,0,2.116-.533l3.035,5.791a16.383,16.383,0,0,1-5.594,1.148,8.927,8.927,0,0,1-4.29-.976,7.03,7.03,0,0,1-2.3-1.657,9.024,9.024,0,0,1-1.28-1.837,5.837,5.837,0,0,1-.574-1.616,6.489,6.489,0,0,1-.131-.993V348.67h7.522Z" transform="translate(-87.839 -348.67)" fill="#41acef"/>
            <path id="a-2" data-name="a" d="M258.372,370.8v-1.2a3.882,3.882,0,0,0-1.28-1.813,6.514,6.514,0,0,0-.968-.533,6.035,6.035,0,0,0-1.985-.312,12.725,12.725,0,0,0-2.166.18,13.818,13.818,0,0,0-1.936.443q-.861.271-1.28.443l-3.347-5.7c.172-.09.7-.287,1.567-.6a19.689,19.689,0,0,1,3.24-.8,25.058,25.058,0,0,1,4.233-.328,13.224,13.224,0,0,1,6.382,1.657,9.511,9.511,0,0,1,1.829,1.3,12.3,12.3,0,0,1,1.7,1.919,11.366,11.366,0,0,1,1.386,2.674l.156.443V387.2h-7.53v-1.017a18.585,18.585,0,0,1-6.743,1.46,10.958,10.958,0,0,1-4.233-.8,7.542,7.542,0,0,1-2.748-1.813,8.859,8.859,0,0,1-1.518-2.141,8.06,8.06,0,0,1-.656-1.854,7.68,7.68,0,0,1-.156-.993,8.473,8.473,0,0,1,.5-4.069,7.853,7.853,0,0,1,1.878-2.764,7.932,7.932,0,0,1,2.592-1.616,9.489,9.489,0,0,1,2.666-.615Zm-7.637,10.344a2.665,2.665,0,0,0,.55.107,4.6,4.6,0,0,0,1.337-.09,16.547,16.547,0,0,0,2.3-.64,25.167,25.167,0,0,0,3.453-1.55V377.16l-7.793.131a.841.841,0,0,0-.5.394,2.341,2.341,0,0,0-.262.664,2.294,2.294,0,0,0-.049.705c.016.238.025.41.025.533.033.115.115.369.238.755A1.221,1.221,0,0,0,250.736,381.146Z" transform="translate(-91.527 -350.812)" fill="#41acef"/>
            <path id="n" d="M298,363.594a9.122,9.122,0,0,1,3.421,3.273,8.381,8.381,0,0,1,1.23,4.421v16h-7.53v-16a2.992,2.992,0,0,0-.336-1.394,2.452,2.452,0,0,0-.968-.993,3.527,3.527,0,0,0-1.911-.443,8.511,8.511,0,0,0-2.141.377,14.261,14.261,0,0,0-2.092.837c-.681.336-1.28.673-1.8.993v16.619h-7.53V361.56h7.53v1.772a21.523,21.523,0,0,1,2.928-.861,15.522,15.522,0,0,1,3.084-.353,13.65,13.65,0,0,1,3.109.312A10.216,10.216,0,0,1,298,363.594Z" transform="translate(-98.009 -350.987)" fill="#41acef"/>
            <path id="d" d="M324.817,385.379a11.539,11.539,0,0,1-8.162-3.494,11.616,11.616,0,0,1-2.559-3.847,11.908,11.908,0,0,1-.886-4.553v-3.847a12.046,12.046,0,0,1,1.28-5.5,10.107,10.107,0,0,1,1.7-2.387,9,9,0,0,1,1.96-1.526,10.211,10.211,0,0,1,4.807-1.394,14.749,14.749,0,0,1,2.879.156,19.782,19.782,0,0,1,2.8.64,23.37,23.37,0,0,1,2.559.952V348.95h7.481v36.158h-7.481v-1.239a14.77,14.77,0,0,1-6.218,1.5h-.156Zm-4.077-11.894a5.666,5.666,0,0,0,1.673,4.241,3.789,3.789,0,0,0,1.567,1.107,4.537,4.537,0,0,0,.943.172,5.15,5.15,0,0,0,.943-.107,6.491,6.491,0,0,0,1.337-.443,12.916,12.916,0,0,0,1.755-.976,21.117,21.117,0,0,0,2.2-1.657V368c-.664-.41-1.386-.812-2.174-1.2a23.316,23.316,0,0,0-2.33-.993,13.219,13.219,0,0,0-2.2-.6,3.7,3.7,0,0,0-1.723.041,1.5,1.5,0,0,0-.787.55,5.417,5.417,0,0,0-.55.927,7.557,7.557,0,0,0-.394,1.042,6.641,6.641,0,0,0-.205.837,2.149,2.149,0,0,0-.049.468v4.413Z" transform="translate(-104.276 -348.72)" fill="#41acef"/>
          </g>
        </g>
      </g>
      <g id="tag" transform="translate(0 7)">
        <rect id="square" width="64" height="24" rx="3" transform="translate(1304 432)" fill="#e2a93e"/>
        <path id="triangle" d="M10.548.9,10,8H0Z" transform="translate(1363 463) rotate(180)" fill="#e2a93e"/>
      </g>
      <text id="Testnet" transform="translate(1309 456)" fill="#454545" font-size="14" font-family="Poppins-Bold, Poppins" font-weight="700"><tspan x="0" y="0">Testnet</tspan></text>
    </g>
  </g>
</svg>
