<svg xmlns="http://www.w3.org/2000/svg" width="724.75" height="122.812" viewBox="0 0 724.75 122.812">
  <g id="组_8" data-name="组 8" transform="translate(-702.5 -462.5)">
    <g id="组_4" data-name="组 4" transform="translate(702.5 462.5)">
      <path id="路径_1" data-name="路径 1" d="M117.556,154.692A61.406,61.406,0,1,1,134.714,34.311,9.888,9.888,0,0,1,129.2,53.3a41.636,41.636,0,1,0,26.019,57.753,9.889,9.889,0,1,1,17.878,8.458A61.711,61.711,0,0,1,117.556,154.692Z" transform="translate(-56.15 -31.88)" fill="#41acef"/>
    </g>
    <path id="路径_12" data-name="路径 12" d="M175.984,167.787h0a10.668,10.668,0,0,1-15.027.654L138.656,148A10.668,10.668,0,0,1,138,132.976h0a10.668,10.668,0,0,1,15.026-.654l22.3,20.438A10.668,10.668,0,0,1,175.984,167.787Z" transform="translate(601.54 375.275)" fill="#6bf2a5"/>
    <path id="路径_13" data-name="路径 13" d="M190.431,150.939h0a10.662,10.662,0,0,1,0-15.039l33.688-33.688a10.662,10.662,0,0,1,15.039,0h0a10.662,10.662,0,0,1,0,15.039L205.47,150.939A10.662,10.662,0,0,1,190.431,150.939Z" transform="translate(572.01 392.522)" fill="#2cdd7c"/>
    <g id="组_5" data-name="组 5" transform="translate(807.5 130.83)">
      <g id="组_2" data-name="组 2" transform="translate(58.5 348.67)">
        <path id="路径_4" data-name="路径 4" d="M75.411,427.338a29.792,29.792,0,0,1-7.582-6.462,36.924,36.924,0,0,1-4.95-7.68,38.754,38.754,0,0,1-2.809-7.935,55.25,55.25,0,0,1-1.257-7.248c-.216-2.18-.314-4.046-.314-5.558a24.429,24.429,0,0,1,.118-3.025q.236-11.431,4.439-19.425a29.475,29.475,0,0,1,12.453-12.433,35.9,35.9,0,0,1,9.015-3.378,47.634,47.634,0,0,1,9.074-1.218,53.58,53.58,0,0,1,8.583.373c2.75.354,5.2.766,7.326,1.218s3.928.923,5.382,1.375,2.4.766,2.809.9l-7.13,14.083a36.536,36.536,0,0,0-4.694-1.375,46.457,46.457,0,0,0-6.7-1.061,41.483,41.483,0,0,0-7.326,0,17.435,17.435,0,0,0-6.7,1.905q-8.131,4.449-8.5,19.681a52.532,52.532,0,0,0,.059,5.46,32.078,32.078,0,0,0,1.2,7.09,31.572,31.572,0,0,0,2.887,7.032,14.561,14.561,0,0,0,5.126,5.4q5.627,3.506,16.027,1.591V399.6H90.81V384.363h29.167v49.85H101.947v-2.121c-1.178.138-2.318.255-3.437.373-1.12.1-2.239.157-3.319.157A36.465,36.465,0,0,1,75.411,427.338Z" transform="translate(-58.5 -344.55)" fill="#41acef"/>
        <path id="路径_5" data-name="路径 5" d="M134.294,385.043v-2.868a9.3,9.3,0,0,0-3.064-4.341,15.594,15.594,0,0,0-2.318-1.277,14.452,14.452,0,0,0-4.753-.746,30.861,30.861,0,0,0-5.2.432,33.085,33.085,0,0,0-4.635,1.061q-2.062.648-3.064,1.061l-8.014-13.651c.412-.216,1.67-.687,3.751-1.434a47.146,47.146,0,0,1,7.758-1.905,60,60,0,0,1,10.135-.786,31.663,31.663,0,0,1,15.281,3.968,22.524,22.524,0,0,1,4.38,3.123,29.457,29.457,0,0,1,4.066,4.6,27.217,27.217,0,0,1,3.319,6.4l.373,1.061v44.566H134.274v-2.435a44.5,44.5,0,0,1-16.145,3.5,26.237,26.237,0,0,1-10.135-1.905,18.058,18.058,0,0,1-6.58-4.341,21.212,21.212,0,0,1-3.634-5.126,19.3,19.3,0,0,1-1.571-4.439,18.387,18.387,0,0,1-.373-2.377,20.289,20.289,0,0,1,1.2-9.742,18.8,18.8,0,0,1,4.5-6.619,18.994,18.994,0,0,1,6.207-3.869,22.723,22.723,0,0,1,6.383-1.473Zm-18.266,24.768a6.38,6.38,0,0,0,1.316.255,11.014,11.014,0,0,0,3.2-.216,39.611,39.611,0,0,0,5.5-1.532,60.258,60.258,0,0,0,8.269-3.712v-4.341l-18.659.314a2.014,2.014,0,0,0-1.2.943,5.6,5.6,0,0,0-.629,1.591,5.493,5.493,0,0,0-.118,1.689c.039.57.059.982.059,1.277.079.275.275.884.57,1.807A2.829,2.829,0,0,0,116.028,409.811Z" transform="translate(-22.614 -337.177)" fill="#41acef"/>
        <path id="路径_6" data-name="路径 6" d="M150.221,423.213H132.19V361.5h18.031v4.341a51.543,51.543,0,0,1,7.012-2.062,37.168,37.168,0,0,1,7.385-.845,32.8,32.8,0,0,1,7.444.746,25.294,25.294,0,0,1,7.208,2.809c.511.275.982.57,1.434.845a12.356,12.356,0,0,1,1.316.943,54.275,54.275,0,0,1,8.014-3.28,42.388,42.388,0,0,1,8.819-1.846,35.568,35.568,0,0,1,9.133.216,26.248,26.248,0,0,1,8.956,3.123,22.193,22.193,0,0,1,8.21,7.837,20.067,20.067,0,0,1,2.946,10.587v38.32H210.068v-38.32a7.164,7.164,0,0,0-.805-3.339,5.87,5.87,0,0,0-2.318-2.377,9.169,9.169,0,0,0-3.889-1.061,14.83,14.83,0,0,0-4.321.432,29.364,29.364,0,0,0-4.439,1.473,42.6,42.6,0,0,0-4.125,2,3.975,3.975,0,0,1,.255,1.375v39.793H172.4v-38.32a7.165,7.165,0,0,0-.805-3.339,5.87,5.87,0,0,0-2.318-2.377,8.445,8.445,0,0,0-4.576-1.061,20.384,20.384,0,0,0-5.126.9,34.15,34.15,0,0,0-5.009,2c-1.63.805-3.064,1.611-4.321,2.377v39.813Z" transform="translate(12.547 -336.3)" fill="#41acef"/>
        <path id="路径_7" data-name="路径 7" d="M204.871,399.816q2.74,8.043,11.9,8.9,9.133.854,23.412-3.594l6.128,14.3c-9.84,3.1-18.62,4.655-26.28,4.655q-12.4,0-21.154-5.5a24.683,24.683,0,0,1-7.817-7.562,35.244,35.244,0,0,1-3.889-8.249,29.28,29.28,0,0,1-1.316-7.09q-.118-3.123-.118-4.066,0-16.734,11.274-24.768a25.883,25.883,0,0,1,7.267-3.751,39.015,39.015,0,0,1,6.953-1.63,37.719,37.719,0,0,1,5.637-.373c1.63.039,2.73.079,3.319.157,5.6.57,10.115,2.062,13.592,4.5a26.227,26.227,0,0,1,11.392,18.306,38.6,38.6,0,0,1,.314,8.839l-.746,6.992H204.871Zm22.155-15.242a11.964,11.964,0,0,0-1.2-3.064,11.2,11.2,0,0,0-2.062-2.652,10.394,10.394,0,0,0-3.064-1.905,11.492,11.492,0,0,0-4.321-.746,22.627,22.627,0,0,0-3.634.373,9.993,9.993,0,0,0-4.262,1.846,9.044,9.044,0,0,0-2.377,2.75,20.967,20.967,0,0,0-1.493,3.378h22.411Z" transform="translate(64.176 -336.708)" fill="#41acef"/>
        <path id="路径_8" data-name="路径 8" d="M239.761,348.69v69.864a5.253,5.253,0,0,0,.491,1.218,1.963,1.963,0,0,0,.884.9,5.65,5.65,0,0,0,2.2.1A19.6,19.6,0,0,0,248.4,419.5l7.267,13.867a39.23,39.23,0,0,1-13.4,2.75A21.376,21.376,0,0,1,232,433.776a16.833,16.833,0,0,1-5.5-3.968,21.611,21.611,0,0,1-3.064-4.4,13.975,13.975,0,0,1-1.375-3.869,15.537,15.537,0,0,1-.314-2.377V348.67h18.011Z" transform="translate(98.894 -348.67)" fill="#41acef"/>
        <path id="路径_9" data-name="路径 9" d="M280.824,385.043v-2.868a9.3,9.3,0,0,0-3.064-4.341,15.6,15.6,0,0,0-2.318-1.277,14.452,14.452,0,0,0-4.753-.746,30.462,30.462,0,0,0-5.185.432,33.086,33.086,0,0,0-4.635,1.061q-2.062.648-3.064,1.061l-8.014-13.651c.412-.216,1.669-.687,3.751-1.434a47.146,47.146,0,0,1,7.758-1.905,60,60,0,0,1,10.135-.786,31.663,31.663,0,0,1,15.281,3.968,22.771,22.771,0,0,1,4.38,3.123,29.456,29.456,0,0,1,4.066,4.6,27.217,27.217,0,0,1,3.319,6.4l.373,1.061v44.566H280.824v-2.435a44.5,44.5,0,0,1-16.145,3.5,26.237,26.237,0,0,1-10.135-1.905,18.058,18.058,0,0,1-6.58-4.341,21.212,21.212,0,0,1-3.634-5.126,19.3,19.3,0,0,1-1.571-4.439,18.384,18.384,0,0,1-.373-2.377,20.289,20.289,0,0,1,1.2-9.742,18.8,18.8,0,0,1,4.5-6.619,18.994,18.994,0,0,1,6.207-3.869,22.723,22.723,0,0,1,6.383-1.473Zm-18.286,24.768a6.381,6.381,0,0,0,1.316.255,11.014,11.014,0,0,0,3.2-.216,39.614,39.614,0,0,0,5.5-1.532,60.26,60.26,0,0,0,8.269-3.712v-4.341l-18.659.314a2.014,2.014,0,0,0-1.2.943,5.606,5.606,0,0,0-.629,1.591,5.493,5.493,0,0,0-.118,1.689c.039.57.059.982.059,1.277.079.275.275.884.57,1.807A2.923,2.923,0,0,0,262.538,409.811Z" transform="translate(118.68 -337.177)" fill="#41acef"/>
        <path id="路径_10" data-name="路径 10" d="M325.42,366.431a21.843,21.843,0,0,1,8.19,7.837,20.068,20.068,0,0,1,2.946,10.587v38.32H318.526v-38.32a7.165,7.165,0,0,0-.805-3.339,5.871,5.871,0,0,0-2.318-2.377,8.445,8.445,0,0,0-4.576-1.061,20.384,20.384,0,0,0-5.126.9,34.15,34.15,0,0,0-5.008,2c-1.63.805-3.064,1.611-4.321,2.377v39.793H278.34v-61.6h18.031V365.8a51.551,51.551,0,0,1,7.012-2.062,37.168,37.168,0,0,1,7.385-.845,32.686,32.686,0,0,1,7.444.746A24.461,24.461,0,0,1,325.42,366.431Z" transform="translate(153.454 -336.242)" fill="#41acef"/>
        <path id="路径_11" data-name="路径 11" d="M341,436.177a27.63,27.63,0,0,1-19.543-8.367,27.815,27.815,0,0,1-6.128-9.212,28.513,28.513,0,0,1-2.121-10.9v-9.212a28.844,28.844,0,0,1,3.064-13.179,24.2,24.2,0,0,1,4.066-5.716,21.546,21.546,0,0,1,4.694-3.653,24.45,24.45,0,0,1,11.51-3.339,35.311,35.311,0,0,1,6.894.373,47.368,47.368,0,0,1,6.7,1.532,55.959,55.959,0,0,1,6.128,2.278V348.95h17.913v86.579H356.264v-2.966a35.366,35.366,0,0,1-14.888,3.594H341Zm-9.762-28.48a13.566,13.566,0,0,0,4.007,10.155A9.071,9.071,0,0,0,339,420.5a10.861,10.861,0,0,0,2.259.412,12.329,12.329,0,0,0,2.259-.255,15.533,15.533,0,0,0,3.2-1.061,30.936,30.936,0,0,0,4.2-2.337,50.558,50.558,0,0,0,5.264-3.968V394.557c-1.591-.982-3.319-1.944-5.2-2.868a55.841,55.841,0,0,0-5.578-2.377,31.658,31.658,0,0,0-5.264-1.434,8.859,8.859,0,0,0-4.125.1,3.58,3.58,0,0,0-1.886,1.316,12.968,12.968,0,0,0-1.316,2.219,18.1,18.1,0,0,0-.943,2.494,15.9,15.9,0,0,0-.491,2,5.146,5.146,0,0,0-.118,1.12V407.7Z" transform="translate(187.073 -348.4)" fill="#41acef"/>
      </g>
    </g>
  </g>
</svg>
