<svg width="24" height="24" fill="none" xmlns="http://www.w3.org/2000/svg"><circle cx="12" cy="12" r="12" fill="#EEE6FA"/><path d="M11.197 8.86a1.028 1.028 0 0 0-.216-.48 1.025 1.025 0 0 0-.264-.223.104.104 0 0 1-.042-.017l-.698-.42-.955-.574a1.047 1.047 0 0 0-.428-.138.965.965 0 0 0-.508.079c-.066.03-.127.068-.19.105-.322.187-.645.372-.967.56-.212.122-.428.241-.637.369a.969.969 0 0 0-.493.842c0 .676-.005 1.353.002 2.029a.92.92 0 0 0 .455.806c.315.198.637.385.956.577l.754.454c.189.113.395.16.614.149a.988.988 0 0 0 .463-.154c.39-.237.785-.47 1.178-.704.019-.012.037-.024.06-.027l.333-.2c.19-.115.381-.23.573-.343.102-.06.207-.114.311-.171l.66-.362c.308-.171.619-.339.922-.52.3-.18.605-.353.907-.53.278-.163.555-.33.834-.492.113-.066.224-.138.353-.175a2.25 2.25 0 0 1 .195-.045c.013-.007.027.001.04-.006l.038-.002a.79.79 0 0 1 .139 0c.203.013.376.102.546.204.205.122.413.24.62.359l.99.573c.285.165.573.327.857.493.244.143.497.27.73.43a.942.942 0 0 1 .407.653l.008.041c.006.013 0 .028.006.041v3.86a.992.992 0 0 1-.341.77c-.087.078-.191.13-.291.188l-.558.324-.45.258-.663.385-.75.43-.657.382a1.162 1.162 0 0 1-.18.084.39.39 0 0 1-.143.026c-.142-.002-.283-.006-.424.001a.557.557 0 0 1-.308-.094l-.368-.212-.358-.207-.357-.208c-.12-.07-.241-.138-.362-.207l-.367-.212-.358-.208-.424-.244c-.15-.085-.298-.172-.446-.258-.095-.055-.194-.105-.282-.17a1.003 1.003 0 0 1-.406-.68c-.007-.014.002-.032-.006-.047v-1.356c-.001-.037.01-.056.043-.074.256-.146.51-.295.766-.443l.623-.357.107-.06v.46c.014.016.01.037.01.055 0 .266-.003.531 0 .796a.964.964 0 0 0 .224.601c.1.125.234.205.37.283.246.14.49.283.736.425.296.171.591.346.89.513a1.031 1.031 0 0 0 .975-.007l1.131-.67c.197-.117.398-.227.59-.353a.957.957 0 0 0 .437-.698c.007-.05.01-.102.01-.154 0-.653.002-1.306 0-1.96a.98.98 0 0 0-.295-.709c-.082-.082-.183-.14-.283-.196-.296-.17-.59-.342-.886-.513-.248-.143-.49-.293-.743-.427-.313-.165-.636-.184-.957-.02-.138.07-.268.152-.4.23-.407.234-.813.47-1.22.705-.36.21-.723.417-1.084.627-.016.01-.033.013-.05.019l-.32.181-.44.253-.728.421-.704.408-.67.388c-.136.079-.27.161-.409.235a1.012 1.012 0 0 1-.358.11c-.013.005-.028-.002-.04.005l-.076.002a15.352 15.352 0 0 0-.106-.002c-.013-.007-.028 0-.041-.006l-.1-.017c-.05 0-.095-.021-.14-.04-.127-.05-.24-.127-.357-.195-.395-.226-.788-.454-1.182-.682l-.85-.49c-.326-.19-.655-.374-.98-.567a.987.987 0 0 1-.478-.642.531.531 0 0 1-.012-.122c-.002-.018.004-.035-.004-.052V8.01c.008-.012.002-.026.004-.039a.788.788 0 0 1 .149-.424.905.905 0 0 1 .326-.284c.247-.139.49-.284.735-.427l1.106-.643 1.458-.85c.068-.04.143-.066.219-.089a.17.17 0 0 1 .05-.005h.505c.084 0 .155.04.224.08.299.173.597.348.894.523l.523.305c.013.007.025.014.03.028l.395.233c.307.18.615.361.923.54.171.1.345.194.51.302.21.137.346.33.414.57.013.046.019.095.028.142.007.016-.001.033.006.049V9.408c0 .029-.007.044-.034.059-.14.078-.277.16-.416.24-.138.08-.278.158-.417.238l-.663.384c-.006.002-.01 0-.01-.007-.002-.011-.001-.023-.001-.035V8.972c0-.014.003-.029-.004-.042l-.001-.03c-.007-.012.001-.027-.006-.04z" fill="#6D3BD9"/></svg>