<svg id="logo" xmlns="http://www.w3.org/2000/svg" width="64" height="64" viewBox="0 0 64 64">
  <defs>
    <style>
      .cls-1 {
        fill: none;
      }

      .cls-2 {
        fill: #a441f1;
      }
    </style>
  </defs>
  <g id="_1" data-name="1">
    <g id="logo-2" data-name="logo">
      <rect id="logo-3" data-name="logo" class="cls-1" width="64" height="64"/>
      <path id="logo-4" data-name="logo" class="cls-2" d="M61.18,47.31V31.86a2.68,2.68,0,0,0-1.33-2.31L46.47,21.83a2.66,2.66,0,0,0-2.67,0L34.91,27h0l-7,4.2L20.2,35.59a2.66,2.66,0,0,1-2.67,0L9.85,31.16a2.68,2.68,0,0,1-1.33-2.31V20a2.68,2.68,0,0,1,1.33-2.31l7.68-4.43a2.66,2.66,0,0,1,2.67,0l7.68,4.43A2.68,2.68,0,0,1,29.21,20v5.27L34.91,22V16.69a2.68,2.68,0,0,0-1.33-2.31L20.2,6.66a2.66,2.66,0,0,0-2.67,0L4.15,14.38a2.68,2.68,0,0,0-1.33,2.31V32.14a2.68,2.68,0,0,0,1.33,2.31l13.38,7.72a2.66,2.66,0,0,0,2.67,0S34,34.19,34.11,34l2-1.2,7.68-4.43a2.66,2.66,0,0,1,2.67,0l7.68,4.43a2.68,2.68,0,0,1,1.33,2.31V44a2.68,2.68,0,0,1-1.33,2.31l-7.68,4.43a2.66,2.66,0,0,1-2.67,0l-7.68-4.43A2.68,2.68,0,0,1,34.79,44V38.71l-5.7,3.2v5.4a2.68,2.68,0,0,0,1.33,2.31L43.8,57.34a2.66,2.66,0,0,0,2.67,0l13.38-7.72a2.68,2.68,0,0,0,1.33-2.31Z"/>
    </g>
  </g>
</svg>
