<svg xmlns="http://www.w3.org/2000/svg" width="16" height="16" viewBox="0 0 16 16"><defs><style>.a{fill:none;}.b{fill:#cecece;}</style></defs><g transform="translate(-419 -33)"><rect class="a" width="16" height="16" transform="translate(419 33)"/><g transform="translate(-4 1)"><path class="b" d="M-3990,12a6.007,6.007,0,0,1-6-6,6.007,6.007,0,0,1,6-6,6.007,6.007,0,0,1,6,6A6.007,6.007,0,0,1-3990,12Zm0-10a4.005,4.005,0,0,0-4,4,4,4,0,0,0,4,4,4,4,0,0,0,4-4A4.005,4.005,0,0,0-3990,2Z" transform="translate(4420 32)"/><path class="b" d="M0,0H2A0,0,0,0,1,2,0V5A1,1,0,0,1,1,6H1A1,1,0,0,1,0,5V0A0,0,0,0,1,0,0Z" transform="translate(432.861 43.312) rotate(-40)"/></g></g></svg>